<svg xmlns="http://www.w3.org/2000/svg" xmlns:xlink="http://www.w3.org/1999/xlink" viewBox="0 0 130.167 130.167" fill="#fff" fill-rule="evenodd" stroke="#000" stroke-linecap="round" stroke-linejoin="round"><use xlink:href="#A" x="2.083" y="2.083"/><symbol id="A" overflow="visible"><g stroke="none" fill-rule="nonzero"><path d="M55.417 91.875c2.083 3.75 4.375 6.042 7.083 6.042 6.875 0 12.5-15.833 12.5-35.417 0-9.583-1.25-18.333-3.542-24.583" fill="#9b9b9a"/><path d="M71.458 37.916c-2.292-6.667-5.417-10.833-8.958-10.833-6.875 0-12.5 15.833-12.5 35.417 0 12.292 2.083 22.917 5.417 29.375" fill="#d0cfce"/><use xlink:href="#C"/><use xlink:href="#D"/><use xlink:href="#E"/><use xlink:href="#C" y="-83.333"/></g><g fill="none"><g stroke-width="4.167"><path d="M50 62.5c0-19.621 5.575-35.417 12.5-35.417S75 42.879 75 62.5s-5.575 35.417-12.5 35.417S50 82.121 50 62.5z"/><use xlink:href="#C"/><path d="M75 75l14.375 14.375" stroke-miterlimit="10"/><use xlink:href="#D"/><path d="M50 75L35.625 89.375" stroke-miterlimit="10"/><use xlink:href="#E"/><path d="M50 50L35.625 35.625" stroke-miterlimit="10"/><use xlink:href="#C" y="-83.333"/><path d="M75 50l14.375-14.375M113.334 95L95 113.334M11.667 95L30 113.334M11.667 30L30 11.667"/><path d="M113.333 30L95 11.667"/></g><path d="M113.334 95L95 113.334M11.667 95L30 113.334M11.667 30L30 11.667M113.334 30L95 11.667" stroke="#9b9b9a" stroke-width="4.375" stroke-miterlimit="10"/></g></symbol><defs ><path id="C" d="M83.333 104.166a20.79 20.79 0 1 1 41.667 0 20.79 20.79 0 1 1-41.667 0z"/><path id="D" d="M0 104.166a20.79 20.79 0 0 1 20.833-20.833 20.79 20.79 0 1 1 0 41.667A20.79 20.79 0 0 1 0 104.166z"/><path id="E" d="M0 20.833A20.79 20.79 0 0 1 20.833 0a20.79 20.79 0 0 1 20.833 20.833 20.79 20.79 0 0 1-20.833 20.833A20.79 20.79 0 0 1 0 20.833z"/></defs></svg>