<?xml version="1.0" standalone="no"?>
<!DOCTYPE svg PUBLIC "-//W3C//DTD SVG 20010904//EN"
 "http://www.w3.org/TR/2001/REC-SVG-20010904/DTD/svg10.dtd">
<svg version="1.0" xmlns="http://www.w3.org/2000/svg"
 width="1042.000000pt" height="1042.000000pt" viewBox="0 0 1042.000000 1042.000000"
 preserveAspectRatio="xMidYMid meet">

<g transform="translate(0.000000,1042.000000) scale(0.100000,-0.100000)"
fill="#000000" stroke="none">
<path d="M5155 8281 c-156 -72 -284 -388 -326 -806 -21 -212 -3 -608 91 -1950
75 -1060 182 -2411 194 -2422 2 -2 6 34 10 79 15 181 43 268 86 268 40 0 62
-66 80 -245 7 -60 13 -111 15 -113 1 -1 5 33 8 75 4 43 22 265 41 493 61 715
141 1813 212 2905 30 458 36 827 16 975 -42 307 -126 553 -232 673 -69 77
-129 99 -195 68z"/>
<path d="M4430 6659 c-1055 -60 -2110 -234 -2835 -469 -351 -114 -611 -244
-671 -335 -16 -24 -15 -27 2 -47 28 -31 88 -54 199 -77 237 -47 542 -61 1390
-61 605 0 2305 17 2311 23 1 1 -8 162 -22 357 -13 195 -27 414 -31 485 l-8
130 -95 1 c-52 1 -160 -2 -240 -7z"/>
<path d="M5650 6644 c0 -15 -14 -235 -31 -487 -16 -253 -29 -461 -27 -463 3
-2 419 -9 927 -15 1009 -12 2257 -7 2446 10 293 27 480 67 520 111 27 30 12
64 -53 115 -114 91 -389 209 -709 306 -785 237 -1868 403 -2905 445 l-168 7 0
-29z"/>
<path d="M5191 3363 c-27 -103 -36 -232 -36 -538 0 -305 8 -436 37 -604 12
-75 21 -66 37 39 47 319 47 894 -1 1088 -14 56 -25 61 -37 15z"/>
<path d="M4860 3170 c-268 -48 -552 -161 -775 -309 -218 -144 -371 -316 -391
-439 -6 -37 -3 -44 23 -70 57 -58 195 -65 578 -32 393 34 616 50 711 50 50 0
93 2 96 5 2 3 1 31 -3 62 -5 32 -22 195 -39 363 -42 423 -36 390 -68 389 -15
0 -74 -9 -132 -19z"/>
<path d="M5381 3044 c-13 -152 -56 -556 -67 -630 l-6 -41 179 -6 c98 -4 257
-14 353 -22 96 -9 249 -22 340 -30 294 -26 458 -18 515 26 84 67 -43 281 -270
454 -258 198 -645 354 -971 390 l-60 7 -13 -148z"/>
</g>
</svg>
